<svg xmlns="http://www.w3.org/2000/svg" viewBox="0 0 197.06 53.46"><defs><style>.dc972bfb-1627-487d-a1db-96fd27dbf9b1{fill:#58595b}.d5a52c6b-f289-4289-9287-fd0cd019a32f{fill:#ef3e42}</style></defs><title>valu_logo</title><g id="5bb4aacf-0cf6-4d1c-8c9b-12815931e00f" data-name="Layer 2"><g id="db4158e7-5811-4403-a87e-57b153d5bcd0" data-name="Layer 1"><path class="dc972bfb-1627-487d-a1db-96fd27dbf9b1" d="M185.33.55V31c0 7.5-4.85 12-11.65 12S162 38.45 162 31V6.42a5.84 5.84 0 0 0-5.82-5.87h-5.94V31c0 12 9.3 22.51 23.45 22.51S197.06 43 197.06 31V.55zM116.55 42.52V4.92A5.8 5.8 0 0 0 111 .55h-6.1v46.19a5.84 5.84 0 0 0 5.78 5.86h32.91V42.52zM38.77.55L34.7 11.18l-9.54 25.4-9.46-25.4-2.41-6.34C12 2.1 10.76.55 8 .55H0l20.32 49.32a5.2 5.2 0 0 0 4.85 3.28 5.3 5.3 0 0 0 4.92-3.28L50.41.55z"/><path class="d5a52c6b-f289-4289-9287-fd0cd019a32f" d="M83 48.31c1.25 2.73 2.52 4.29 5.26 4.29h8L76 3.28A5.2 5.2 0 0 0 71.13 0a5.3 5.3 0 0 0-4.92 3.28L45.88 52.6h11.65L61.6 42l9.54-25.4L80.59 42z"/></g></g></svg>