<svg xmlns="http://www.w3.org/2000/svg" viewBox="0 0 222.22 275.55"><title>icon_human</title><g id="9565b05c-9513-44ab-b2d2-50c4e0b928f1" data-name="Layer 2"><path d="M177 177.49l-34.75-7.72v-11a53.23 53.23 0 0 0 22.13-41.42 64.62 64.62 0 0 0 17.87-44.73V53.33a22.26 22.26 0 0 0-19.29-22A55.72 55.72 0 0 0 112.82 0h-7.48a65.66 65.66 0 0 0-40.12 13.77A64.9 64.9 0 0 0 40 65.34v7.31a64.62 64.62 0 0 0 17.87 44.73A53.25 53.25 0 0 0 80 158.79v11l-34.75 7.72A57.43 57.43 0 0 0 0 233.89v41.66h222.22v-41.66a57.43 57.43 0 0 0-45.22-56.4zm-30.86 2.25l-6.79 30.52-21-15 20.57-17.14zm-35 10l-22.25-18.49V164a52.7 52.7 0 0 0 44.44 0v7.27zM57.78 75.55v27.39a55.82 55.82 0 0 1-8.89-30.31v-7.3a56.09 56.09 0 0 1 21.79-44.55 56.7 56.7 0 0 1 34.66-11.89h7.48a46.83 46.83 0 0 1 43.1 28.41l1.16 2.7H160a13.35 13.35 0 0 1 13.33 13.33v19.3a55.85 55.85 0 0 1-8.89 30.31V66.67h-6.2A25.44 25.44 0 0 1 137 55.31l-1.32-2h-9.34l-1.29 2.15a41.52 41.52 0 0 1-35.41 20.09zm8.89 40V84.44h23a50.52 50.52 0 0 0 41.57-22 34.27 34.27 0 0 0 24.35 13v40.1a44.45 44.45 0 0 1-88.89 0zm16.6 62.59l20.57 17.14-21 15-6.74-30.54zm10.42 88.52H53.33v-17.77h-8.89v17.78H8.89v-32.78a48.59 48.59 0 0 1 38.28-47.72l20.25-4.5 9.7 43.63 15.36-11 5.14 5.14zm25.92 0h-17l4.21-50.57-7-7 11.3-8.07 11.3 8.07-7 7zm93.72 0h-35.55v-17.77h-8.89v17.78h-40.36l-3.93-47.21 5.14-5.14 15.36 11 9.7-43.63 20.25 4.5a48.59 48.59 0 0 1 38.28 47.72zm0 0" id="574bcd04-b18f-49d2-acdb-12c58c4a2f2d" data-name="Layer 1"/></g></svg>