<svg xmlns="http://www.w3.org/2000/svg" viewBox="0 0 364 284.86"><defs><style>.\33 84771a3-6926-4bbe-a2f4-b4e0374459aa{fill:none}.dadabf16-3c3d-4fa0-86eb-aea4f101c0a3{clip-path:url(#1e1f06fc-f979-412c-915d-3fefaa4df138)}</style><clipPath id="1e1f06fc-f979-412c-915d-3fefaa4df138"><path class="384771a3-6926-4bbe-a2f4-b4e0374459aa" d="M0 0h364.8v285H0z"/></clipPath></defs><title>icon_newspaper</title><g id="890a4480-883a-40c9-8b54-5b3bef8a0786" data-name="Layer 2"><g id="b92985f3-37cf-4af5-900a-c2efd25d0bcd" data-name="Layer 1"><path d="M356.93 174.52c-4.5-2.48-10.2-1.94-15.66 1.5l-100.76 63.45a6 6 0 0 0 6.39 10.15l100.76-63.44c2.13-1.34 3.29-1.24 3.46-1.15s.88 1 .88 3.54c0 6.76-5 15.85-10.74 19.45l-97.68 61.51c-5.19 3.27-9.94 4.17-13 2.47s-4.85-6.2-4.85-12.34c0-15.55 11.12-35.69 24.28-44l111.22-70a6 6 0 0 0 0-10.16L147.5.92a6 6 0 0 0-6.39 0L28.53 71.81C12.53 81.88 0 104.58 0 123.49v3.2c0 18.91 12.53 41.61 28.53 51.68L196 283.79a6 6 0 0 0 6.39-10.15L34.92 168.21C22.5 160.38 12 141.37 12 126.68v-3.2C12 108.8 22.5 89.79 34.92 82L144.3 13.09l202.44 127.48-103.15 65c-16.76 10.55-29.88 34.33-29.88 54.13 0 10.8 3.93 18.91 11.05 22.84a19.13 19.13 0 0 0 9.37 2.36c5 0 10.39-1.74 15.85-5.18l97.68-61.51c9.16-5.81 16.34-18.81 16.34-29.64 0-6.44-2.58-11.56-7.08-14zm0 0" class="dadabf16-3c3d-4fa0-86eb-aea4f101c0a3"/><path d="M282.93 146.57a6 6 0 0 0 3.2-11.08L147.5 48.19a6 6 0 1 0-6.39 10.16l138.64 87.3a6 6 0 0 0 3.19.92zm0 0M258.95 162.5a6 6 0 0 0 3.19-11.09l-58.57-36.72a6 6 0 1 0-6.37 10.16l58.57 36.73a6 6 0 0 0 3.18.92zm0 0M179.12 130.48a6 6 0 0 0-6.35 10.18l59 36.85a6 6 0 1 0 6.36-10.18zm0 0M116.17 63.9L66.3 95.3a6 6 0 0 0 0 10.17l59.47 37a6 6 0 0 0 6.43-.05l13.24-8.56a6 6 0 1 0-6.44-10.11l-10.05 6.5-48.09-29.9 38.56-24.29 47.4 29.72-5.52 3.57a6 6 0 0 0 6.51 10.08l13.44-8.69a6 6 0 0 0-.07-10.12l-58.63-36.73a6 6 0 0 0-6.38 0zm0 0M216.07 191.51a6 6 0 0 0-1.93-8.26l-59.47-37a6 6 0 1 0-6.34 10.19l59.47 37a6 6 0 0 0 8.26-1.93zm0 0M42.82 114.72a6 6 0 0 0 1.93 8.28l146.78 91.27a6 6 0 0 0 6.34-10.19L51.09 112.79a6 6 0 0 0-8.27 1.93zm0 0"/></g></g></svg>