<svg xmlns="http://www.w3.org/2000/svg" viewBox="0 0 140.9 55.18"><defs><style>.c16b0685-9cb7-4453-9c11-f4a1c9eb1708{fill:#00b0d8}</style></defs><title>loviisa_silhouette</title><g id="6b7175aa-a313-44a5-89af-33f30cd155c6" data-name="Layer 2"><g id="832d18d9-879c-4caa-9ce6-d0d6d7ac1986" data-name="Layer 1"><path class="c16b0685-9cb7-4453-9c11-f4a1c9eb1708" d="M76.65 43.86v-4.19h2.32v-6.39l2.42-1.43v-3.42L82.82 26v-2.86h.77V26l.66 2.32v2.86H94.5l3.86-1.87L102 31.4h10.25V19.28l1.43-4.74.88 2.65 2.31-13.44V0h.55v3.75l1.66 13.44.99-2.65.88 4.74v14.55l.83.83v9.2"/><path class="c16b0685-9cb7-4453-9c11-f4a1c9eb1708" d="M47.46 55.16l.09-2.15.72-1.38 1.48-1.59 2.18-1.08 1.3-.5 2.18-.29h2.47l2.87.99 2.38 1.58 1.04 1.04.74 1.23.03 2.15h7.31l-.02-2.27 1.48-2.85 1.58-1.48 2.57-.59 3.27-.5 4.1.9 2.18 1.67 1.58 2.26.2 1.01.36 1.85h6.65l.38-2.96 2.08-2.75 2.84-.79 2.97-.59 3.26.59 2.75 2.05 1.11 1.78v2.59h5.3l.05-12.66-76.22.13.11 12.61h6.63"/><path class="c16b0685-9cb7-4453-9c11-f4a1c9eb1708" d="M22.67 54.17l.67-.71.52.22.37-.67.57.89V53h.78v-.66h1.51l.4-.73.1-.73v-.3l.53.8v-.81l.34-.36.35-.37h1.31v-1l.23-.49.59.56.36-1.19v-.52l1.13-.39v.78l.22-.79v-.48l.79.34.57-1.28.17-.18v-1.27l.53-.56v-.54c.48 0 1.1.57 1.1.57v.48l.37.35.31-1.82.23-.25s.84-.08.67.1a.91.91 0 0 0-.17.55l.31.23.77-.5.41-.43s.33-.13.34.32a.41.41 0 0 0 .4.44.38.38 0 0 0 0 .48.75.75 0 0 1 .22.48l1-1.32h.93l2.47 2.47.1 10.21h-3.82l-1.09-.33h-1.45l-1.32-.15H32.71s-1.2.21-1.39 0a5.36 5.36 0 0 0-1.63-.08L27.9 55a3.53 3.53 0 0 0-1-.27c-.36 0-1.11.3-1.39 0s-2.79.1-3.21.11.4-.75.4-.75M140.9 54.89l-2.16-.54L138 54l-.67-.71-.52.22-.37-.67-.57.89v-.9h-.78v-.66h-1.51l-.4-.74-.1-.73v-.3l-.54.8v-.81l-.34-.36-.35-.37h-1.31v-1l-.23-.49-.59.56-.36-1.19v-.36l-1.14-.39v.78l-.22-.79v-.48l-.79.34-.57-1.28-.18-.19V43.9l-.53-.56v-.54c-.48 0-1.1.57-1.1.57v.48l-.37.35-.31-1.82L124 42s-.84-.08-.67.1a.89.89 0 0 1 .16.55l-.31.23-.77-.51L122 42s-.33-.13-.34.32a.4.4 0 0 1-.4.44.38.38 0 0 1 0 .48.75.75 0 0 0-.22.48l-1-1.32h-.93l-2.47 2.47-.12 10.13h3.82l1.09-.33h1.45l1.32-.15H128s1.2.21 1.39 0a5.36 5.36 0 0 1 1.63-.07l1.8.23a3.58 3.58 0 0 1 1-.27c.36 0 1.11.3 1.38 0s1.45.1 1.87.11 1.18-.18 1.39 0 1.44.28 1.44.28h.72l.25-.23M64.78 44.92a1.48 1.48 0 0 1 .12-1.49c1-1.44 1.4-1.06 1.4-1.06s2.27-1.42 1.81-2.1c.35-.63.45.56.55.09.13-.66 0-1.11-.26-1.24.16 0 .28-.1.36.22a2.5 2.5 0 0 0 .48-1.41c.33.18.16.77.43.77.68 0 .16-1.45 1-1.39-.44.69.27.2 0 .57s.26.35.26.1c0-.72.24-.88.57-.36.6-.22.08-.76 0-.87.66-.36.36.13 1 .19s-.83-1.09-.08-1.15-.09-1.21.7-.89.71-.06.48-.41a.56.56 0 0 1 .51-.88c.7 0 .3-.24 1-1.4 1.53.73-.52-.88 1.57-.23-.88.64.62 1.09.62 1.09s-1.2 1 .32 1.19c-.43.55.51.44 0 .78-.66.48.67.62.67.62s.35 2.1-.12.7c-.12-.35.44-.73.59-.7.79.15.11-.77.11-.77s-.39-.17-.15-.61c.45-.85.58.76 1.2.41s-.21.82.64.88-1.53.94-.82 1.38-.08 1-.08 1 1-.49 1 0 1 .65.87 0 .77-1.41 1.17-1.12c-.42.21-.77.18-.53.73s1.11.26 1.11.26-1.29.59-.59 1.29a.55.55 0 0 1-.21 1s1.61-.7 1.75-.29c-1.2 0-.67 5-.67 5l-18.84.09"/><path class="c16b0685-9cb7-4453-9c11-f4a1c9eb1708" d="M35.82 49.9s-.45-4.91.13-5.71c1.13-1.57 1.5-.26 1.5-.26A2.69 2.69 0 0 0 37 42.3c.38-.69 1.17.3 1.59 0-.6.44-1.37-2.66-.61-2s.76-.72.79-1.16c.41-.13 1.15-.08.9.33s-.09.15.69.06.31-2 1-1.5.35-.94 1-.92-.5 1.38.77 1.4c.57 0 .19-2 1-2.1s-.16-1.82.69-1.47.85-.21.79-.54c-.11-.69.25-.93.74-.35.79.93-.13-.77.63-2 1.66.79-.18-.83 2.1-.13-.86.9.22 1.19.22 1.19s.07 1 .46.82c-.17.41-.26.26-.46.53 1.06.43 0 .54.75.67a.85.85 0 0 1 .57-.42c.51 0 .29-.46.29-.46s.77-.36.79-.77c.19.22-.07.74.38.82.76.12-.09 1.94.83 2s-.48.69.29 1.17-.21 1.33-.21 1.33a.65.65 0 0 1 .75-.33c.5.13-.08-.83 0-.83.71 0 .18-.9.62-.58-.11.48.64.35.46 1s1.05.14 1.05.14-1.4.64-.64 1.4-.12 1.4-.12 1.4 1.47-.52 1.63-.07c-1.3 0-.74 2.77-.74 2.77l-20.18 6.2M130.93 50a1.31 1.31 0 0 0 .08-1.33c-.74-1.4-1.18-.38-1.18-.38s-.53-1.65 0-2.2c-.23-.6-.43 1-.73.73s.69-1.61 0-1.67c-.42 0-.44-1.39-.21-1.35a.34.34 0 0 0-.47.47c.16.36 0 .47-.37.37-.61-.2-.1-2-.76-1.62s-.2-1-.69-.86c-.21.06.22.68-.81.56-.46-.05.1-1.18-.56-1.33s.34-1.46-.4-1.27-.62-.14-.38-.42a.5.5 0 0 0-.34-.84c-.62-.09.22.14-.25-1-.84.47.5-.4-.92-.71.7.68-.5 1.05-.5 1.05s.92.69-.45.71c.31.54-.58.27-.21.63s-.55.5-.55.5-.22 1.68-.92.47a.87.87 0 0 0-.6-.45c-.72 0 0-.69 0-.69s.36-.1.21-.52c-.29-.81-.61.6-1.11.21s.08.75-.68.69 1.23 1 .56 1.32-.05.89-.05.89-.79-.55-.87-.12-.93.45-.77-.11-.5-1.34-.9-1.13c.34.23.66.25.37.71s-1 .1-1 .1 1.07.68.36 1.21a.49.49 0 0 0 .06.91s-1.34-.82-1.52-.48c1.06.15 0 4.5 0 4.5L130.93 50M7.53 49.12s.09 1.4-.43 1.4a1.93 1.93 0 0 0-1.8 1l19.21.19a.88.88 0 0 0-1.15-.37c0-.9-.67-1.16-1.38-.78-.25-.18-.43-1.39-.43-1.39a8.1 8.1 0 0 0-2.57-1c-.55-1.32-2 0-3.32-.48-.72-.6.09-.8 0-1s-.7-.11-1.32-.12c.15-.47-.75.23-.53-.29-.16-.5-.53-.33-.7.21-1-.17-.68.16-.37.39-.56.11.06.18-.3.37s-1 .36-.39-.6a1.17 1.17 0 0 1-.92.27c-.33 0 .1.35.1.35s-.81.5-1.11-.1c-.51.3-.09 1.1-.54 1.1-1 0-.12.78-.12.78H7.54M1 53.73s0 .63-.19.63a.86.86 0 0 0-.8.43l8.57.08a.39.39 0 0 0-.51-.16c0-.4-.3-.52-.62-.35-.11-.08-.19-.62-.19-.62a3.65 3.65 0 0 0-1.15-.43c-.24-.59-.92 0-1.48-.21-.32-.27 0-.36 0-.43s-.31 0-.59-.05c.07-.21-.34.1-.24-.13-.07-.22-.24-.15-.31.09-.42-.07-.31.07-.16.17-.25 0 0 .08-.13.16s-.44.16-.18-.27a.52.52 0 0 1-.41.12c-.15 0 0 .15 0 .15s-.36.22-.49 0c-.22.13 0 .49-.24.49-.43 0-.06.35-.06.35H.96M94.07 19s.38-1 2.56 1.26c2.7-2.69 3.85-1 3.85-1s-1.87-3.45-3.9-.36a1.32 1.32 0 0 0-2.51.07M89.44 23.44s1.29-.86 3.15 1.07c1.57-1.63 1.84-.83 1.84-.83s0-2.09-1.88-.79c-.84-1.41-2.92-.06-3.11.54"/><path class="c16b0685-9cb7-4453-9c11-f4a1c9eb1708" d="M66.8 41.19l-.01 3.72-12.05-.06.02-3.65-.14.08-.15-.18 4.45-2.18-.18.1-.15-.15 1.53-1.45v-5.26l-.22.11-.08-.12 1.09-.73 1.06.74-.1.12-.19-.12-.01 5.27 1.44 1.48-.15.13-.19-.1 4.28 2.13-.12.2-.13-.08"/></g></g></svg>